<?xml version="1.0" encoding="utf-8"?>
<!-- Generator: Adobe Illustrator 22.0.1, SVG Export Plug-In . SVG Version: 6.00 Build 0)  -->
<svg version="1.1" id="Layer_1" xmlns="http://www.w3.org/2000/svg" xmlns:xlink="http://www.w3.org/1999/xlink" x="0px" y="0px"
	 viewBox="0 0 344 237.1" style="enable-background:new 0 0 344 237.1;" xml:space="preserve">
<style type="text/css">
	.st0{fill:#4A3164;}
</style>
<title>58 all</title>
<path class="st0" d="M39.9,42.3c-11.2,11.2-11.2,29.2,0,40.4c0,0,0,0,0,0l112,112c11.2,11.2,29.2,11.2,40.4,0c0,0,0,0,0,0l112-112
	c11.1-11.3,10.9-29.3-0.4-40.4c-11.1-10.9-29-10.9-40.1,0l-91.8,91.8L80.3,42.3C69.2,31.2,51.1,31.2,39.9,42.3
	C39.9,42.3,39.9,42.3,39.9,42.3z"/>
</svg>
