<?xml version="1.0" encoding="utf-8"?>
<!-- Generator: Adobe Illustrator 16.0.0, SVG Export Plug-In . SVG Version: 6.00 Build 0)  -->
<!DOCTYPE svg PUBLIC "-//W3C//DTD SVG 1.1//EN" "http://www.w3.org/Graphics/SVG/1.1/DTD/svg11.dtd">
<svg version="1.1" id="Layer_1" xmlns="http://www.w3.org/2000/svg" xmlns:xlink="http://www.w3.org/1999/xlink" x="0px" y="0px"
	 width="344px" height="237.07px" viewBox="0 0 344 237.07" enable-background="new 0 0 344 237.07" xml:space="preserve">
<title>58 all</title>
<path fill="#FFFFFF" d="M39.893,42.34C28.729,53.492,28.718,71.584,39.87,82.749c0.008,0.008,0.017,0.016,0.022,0.021
	l112.009,111.961c11.152,11.165,29.244,11.175,40.408,0.021c0.008-0.007,0.016-0.015,0.021-0.021L304.292,82.722
	c11.062-11.255,10.904-29.346-0.35-40.407c-11.127-10.935-28.969-10.925-40.082,0.023l-91.769,91.769L80.323,42.339
	c-11.152-11.164-29.244-11.175-40.41-0.022C39.909,42.325,39.901,42.333,39.893,42.34z"/>
</svg>
