<svg id="Layer_1" data-name="Layer 1" xmlns="http://www.w3.org/2000/svg" viewBox="0 0 112.071 160.542">
  <defs>
    <style>
      .cls-1 {
        fill: #3e4349;
      }
    </style>
  </defs>
  <title>ComingSoon</title>
  <g>
    <g>
      <path class="cls-1" d="M144,76.131a56.036,56.036,0,1,0,56.036,56.036A56.032,56.032,0,0,0,144,76.131Zm4.229,103.415v-3.767a4.229,4.229,0,1,0-8.458,0v3.767a47.643,47.643,0,0,1-43.16-43.282h3.645a4.229,4.229,0,0,0,0-8.458H96.63a47.648,47.648,0,0,1,43.141-43.018v3.5a4.229,4.229,0,1,0,8.458,0v-3.5a47.646,47.646,0,0,1,43.14,43.018h-3.624a4.229,4.229,0,1,0,0,8.459h3.645A47.645,47.645,0,0,1,148.229,179.546Z" transform="translate(-87.964 -76.131)"/>
      <path class="cls-1" d="M169.193,104.867l-25.051,26.249c-.047,0-.095-.007-.143-.007a4.8,4.8,0,0,0-.916.09l-20.965-15.842a3.173,3.173,0,0,0-3.815,5.071l20.959,15.836a4.756,4.756,0,0,0,9.495-.4c0-.126-.009-.249-.018-.372l25.046-26.251a3.172,3.172,0,0,0-4.592-4.378Z" transform="translate(-87.964 -76.131)"/>
    </g>
    <g>
      <g>
        <path class="cls-1" d="M108.536,205.168v5.651c0,1.819,1.37,2.677,3.212,2.677a5.577,5.577,0,0,0,3.746-1.242l.985,1.648a6.592,6.592,0,0,1-4.731,1.584c-3.083,0-5.438-1.584-5.438-4.667v-5.651c0-2.912,2.462-4.667,5.416-4.667a5.689,5.689,0,0,1,4.71,1.97l-1.241,1.519a4.865,4.865,0,0,0-3.468-1.5C109.991,202.492,108.536,203.477,108.536,205.168Z" transform="translate(-87.964 -76.131)"/>
        <path class="cls-1" d="M129.941,205.168v5.651c0,3.04-2.633,4.667-5.673,4.667h-.321c-3.083,0-5.695-1.584-5.695-4.667v-5.651c0-2.954,2.719-4.667,5.673-4.667h.342C127.179,200.5,129.941,202.256,129.941,205.168Zm-2.227,0c0-1.691-1.755-2.676-3.447-2.676h-.342c-1.734,0-3.447.984-3.447,2.676v5.651c0,1.819,1.648,2.677,3.468,2.677h.321c1.8,0,3.447-.879,3.447-2.677Z" transform="translate(-87.964 -76.131)"/>
        <path class="cls-1" d="M135.311,200.715l4.132,7.942,4.218-7.942h2.761v14.558h-1.991V203.3l-4.474,8.971h-1.049l-4.389-8.949v11.946h-1.991V200.715Z" transform="translate(-87.964 -76.131)"/>
        <path class="cls-1" d="M150.164,200.715h2.227v14.558h-2.227Z" transform="translate(-87.964 -76.131)"/>
        <path class="cls-1" d="M165.983,200.715h1.991v14.558h-3.062l-6.744-11.946v11.946h-1.99V200.715h2.911l6.894,12.16Z" transform="translate(-87.964 -76.131)"/>
        <path class="cls-1" d="M176.148,207.416h5.374v6.336a9.288,9.288,0,0,1-5.288,1.734c-3.19,0-5.674-1.627-5.674-4.667v-5.651c0-2.912,2.591-4.667,5.652-4.667a6.768,6.768,0,0,1,4.817,1.8l-1.07,1.627a5.951,5.951,0,0,0-3.747-1.434c-1.8,0-3.425,1.027-3.425,2.676v5.651c0,1.777,1.541,2.677,3.446,2.677a5.658,5.658,0,0,0,3.061-.75v-3.489h-3.147Z" transform="translate(-87.964 -76.131)"/>
      </g>
      <g>
        <path class="cls-1" d="M128.25,232.477c0,2.869-2.355,4.154-5.181,4.154A6.575,6.575,0,0,1,117.481,234l1.52-1.37a5.168,5.168,0,0,0,3.918,2.012c1.563,0,3.1-.557,3.1-2.162,0-1.67-2.012-2.033-3.661-2.547-2.633-.814-4.367-1.756-4.367-4.281,0-2.783,2.291-3.961,5.095-3.961a7.048,7.048,0,0,1,4.753,1.82l-1.263,1.648a5.8,5.8,0,0,0-3.49-1.477c-1.477,0-2.869.514-2.869,1.97,0,1.52,1.82,1.948,3.4,2.4C126.495,228.838,128.25,229.715,128.25,232.477Z" transform="translate(-87.964 -76.131)"/>
        <path class="cls-1" d="M141.713,226.355v5.651c0,3.04-2.633,4.667-5.673,4.667h-.321c-3.083,0-5.695-1.584-5.695-4.667v-5.651c0-2.954,2.719-4.667,5.673-4.667h.342C138.951,221.688,141.713,223.443,141.713,226.355Zm-2.227,0c0-1.691-1.755-2.676-3.447-2.676H135.7c-1.734,0-3.447.984-3.447,2.676v5.651c0,1.82,1.648,2.676,3.468,2.676h.321c1.8,0,3.447-.877,3.447-2.676Z" transform="translate(-87.964 -76.131)"/>
        <path class="cls-1" d="M155.5,226.355v5.651c0,3.04-2.634,4.667-5.674,4.667H149.5c-3.083,0-5.694-1.584-5.694-4.667v-5.651c0-2.954,2.72-4.667,5.674-4.667h.342C152.735,221.688,155.5,223.443,155.5,226.355Zm-2.228,0c0-1.691-1.755-2.676-3.446-2.676h-.342c-1.734,0-3.447.984-3.447,2.676v5.651c0,1.82,1.648,2.676,3.468,2.676h.321c1.8,0,3.446-.877,3.446-2.676Z" transform="translate(-87.964 -76.131)"/>
        <path class="cls-1" d="M167.889,221.9h1.991v14.558h-3.061l-6.744-11.945v11.945h-1.99V221.9H161l6.893,12.16Z" transform="translate(-87.964 -76.131)"/>
      </g>
    </g>
  </g>
</svg>
