<?xml version="1.0" encoding="utf-8"?>
<!-- Generator: Adobe Illustrator 16.0.0, SVG Export Plug-In . SVG Version: 6.00 Build 0)  -->
<!DOCTYPE svg PUBLIC "-//W3C//DTD SVG 1.1//EN" "http://www.w3.org/Graphics/SVG/1.1/DTD/svg11.dtd">
<svg version="1.1" id="Layer_1" xmlns="http://www.w3.org/2000/svg" xmlns:xlink="http://www.w3.org/1999/xlink" x="0px" y="0px"
	 width="69px" height="69px" viewBox="0 0 69 69" enable-background="new 0 0 69 69" xml:space="preserve">
<g>
	<path fill="#FFFFFF" d="M31.811,40.238c0-0.205,0.137-0.341,0.342-0.341h4.697c0.203,0,0.34,0.136,0.34,0.341v8.681h7.867
		c1.325,0,2.381-1.056,2.381-2.384V32.134c0-0.851-0.34-1.668-0.953-2.248l-10.18-9.09c-0.988-0.953-2.621-0.953-3.609,0
		L22.55,29.854l-0.034,0.032c-0.611,0.613-0.953,1.432-0.953,2.248v14.369c0,1.328,1.058,2.383,2.383,2.383h7.865V40.238
		L31.811,40.238z"/>
</g>
</svg>
