<?xml version="1.0" encoding="utf-8"?>
<!-- Generator: Adobe Illustrator 16.0.0, SVG Export Plug-In . SVG Version: 6.00 Build 0)  -->
<!DOCTYPE svg PUBLIC "-//W3C//DTD SVG 1.1//EN" "http://www.w3.org/Graphics/SVG/1.1/DTD/svg11.dtd">
<svg version="1.1" id="Layer_1" xmlns="http://www.w3.org/2000/svg" xmlns:xlink="http://www.w3.org/1999/xlink" x="0px" y="0px"
	 width="69px" height="69px" viewBox="142.49 164.24 69 69" enable-background="new 142.49 164.24 69 69" xml:space="preserve">
<g>
	<path fill="#F5F3ED" d="M174.311,204.712c0-0.205,0.136-0.341,0.341-0.341h4.697c0.204,0,0.341,0.136,0.341,0.341v8.681h7.866
		c1.326,0,2.382-1.056,2.382-2.384v-14.401c0-0.851-0.341-1.668-0.953-2.248l-10.18-9.09c-0.988-0.953-2.622-0.953-3.609,0
		l-10.146,9.056l-0.034,0.034c-0.612,0.613-0.953,1.43-0.953,2.248v14.368c0,1.328,1.056,2.384,2.383,2.384h7.865V204.712z"/>
</g>
</svg>
