<?xml version="1.0" encoding="utf-8"?>
<!-- Generator: Adobe Illustrator 16.0.0, SVG Export Plug-In . SVG Version: 6.00 Build 0)  -->
<!DOCTYPE svg PUBLIC "-//W3C//DTD SVG 1.1//EN" "http://www.w3.org/Graphics/SVG/1.1/DTD/svg11.dtd">
<svg version="1.1" id="Layer_1" xmlns="http://www.w3.org/2000/svg" xmlns:xlink="http://www.w3.org/1999/xlink" x="0px" y="0px"
	 width="408.016px" height="408.015px" viewBox="0 -7.349 408.016 408.015" enable-background="new 0 -7.349 408.016 408.015"
	 xml:space="preserve">
<g>
	<path fill="#F3F3F3" d="M35.749-3c111.316,0,222.631,0,333.945,0c2.076,0.719,4.158,1.416,6.225,2.16
		c14.932,5.375,25.707,20.058,25.713,35.494c0.043,107.412,0.055,214.827-0.004,322.239c-0.012,20.081-17.721,37.813-37.785,37.824
		c-107.412,0.062-214.826,0.062-322.238,0.001c-20.086-0.012-37.777-17.71-37.787-37.796C3.758,249.509,3.782,142.097,3.813,34.684
		c0.004-9.482,3.703-17.557,9.871-24.657C19.61,3.205,27.325-0.472,35.749-3z M226.372,130.702
		c5.758-1.983,10.266-3.996,14.984-5.077c15.814-3.625,28.275,5.511,28.756,21.684c0.193,6.561-0.758,13.611-3.094,19.707
		c-6.471,16.873-16.197,32.097-26.762,46.681c-4.51,6.228-9.783,12.07-15.506,17.197c-5.209,4.668-9.92,3.465-13.465-2.627
		c-2.453-4.222-4.584-8.725-6.182-13.334c-10.676-30.812-16.742-62.693-21.973-94.786c-2.354-14.454-5.699-28.734-12.5-41.872
		c-8.014-15.479-19.646-20.489-36.438-15.926c-11.287,3.067-21.289,8.874-30.541,15.748c-9.846,7.314-19.547,14.938-28.543,23.255
		c-9.957,9.206-19.051,19.347-28.512,29.093c-1.781,1.833-2.031,3.621-0.211,5.775c2.752,3.256,5.363,6.651,7.801,10.151
		c1.715,2.462,3.121,2.576,5.691,0.941c4.998-3.179,10.133-6.291,15.559-8.625c11.545-4.966,16.859-2.892,20.939,8.917
		c7.561,21.884,14.6,43.951,21.703,65.991c8.332,25.859,16.301,51.838,24.82,77.636c5.15,15.593,14.656,28.2,28.697,36.982
		c10.041,6.281,21,8.648,32.193,3.837c6.449-2.771,12.578-6.661,18.211-10.897c25.201-18.972,47.754-40.773,68.188-64.807
		c22.422-26.372,41.82-54.682,55.193-86.75c9.061-21.725,16.26-43.999,14.9-68.039c-0.607-10.751-4.004-20.527-11.385-28.626
		c-11.629-12.759-26.836-16.234-42.906-14.177c-36.438,4.664-61.83,24.492-75.793,58.583
		C228.567,121.33,227.788,125.676,226.372,130.702z"/>
</g>
</svg>
