<?xml version="1.0" encoding="utf-8"?>
<!-- Generator: Adobe Illustrator 16.0.0, SVG Export Plug-In . SVG Version: 6.00 Build 0)  -->
<!DOCTYPE svg PUBLIC "-//W3C//DTD SVG 1.1//EN" "http://www.w3.org/Graphics/SVG/1.1/DTD/svg11.dtd">
<svg version="1.1" id="Layer_1" xmlns="http://www.w3.org/2000/svg" xmlns:xlink="http://www.w3.org/1999/xlink" x="0px" y="0px"
	 width="415.914px" height="415.912px" viewBox="0 -15.246 415.914 415.912" enable-background="new 0 -15.246 415.914 415.912"
	 xml:space="preserve">
<path fill="#F5F3ED" d="M305.546,391.167H108.428c-55.482,0-100.62-45.138-100.62-100.619V93.428
	c0-55.482,45.138-100.62,100.62-100.62h197.119c55.482,0,100.621,45.138,100.621,100.62v197.12
	C406.167,346.029,361.029,391.167,305.546,391.167z M108.428,23.808c-38.389,0-69.62,31.231-69.62,69.62v197.12
	c0,38.388,31.231,69.619,69.62,69.619h197.119c38.389,0,69.621-31.231,69.621-69.619V93.428c0-38.389-31.232-69.62-69.621-69.62
	H108.428z"/>
<path fill="#F5F3ED" d="M206.988,292.339c-55.334,0-100.351-45.017-100.351-100.351S151.654,91.637,206.988,91.637
	s100.351,45.018,100.351,100.352S262.322,292.339,206.988,292.339z M206.988,122.637c-38.241,0-69.351,31.111-69.351,69.352
	s31.11,69.351,69.351,69.351c38.24,0,69.351-31.11,69.351-69.351S245.228,122.637,206.988,122.637z"/>
<path fill="#F5F3ED" d="M316.749,118.066c-15.735,0-28.537-12.802-28.537-28.536c0-15.735,12.802-28.537,28.537-28.537
	s28.537,12.802,28.537,28.537C345.286,105.265,332.484,118.066,316.749,118.066z"/>
</svg>
