<?xml version="1.0" encoding="utf-8"?>
<!-- Generator: Adobe Illustrator 16.0.0, SVG Export Plug-In . SVG Version: 6.00 Build 0)  -->
<!DOCTYPE svg PUBLIC "-//W3C//DTD SVG 1.1//EN" "http://www.w3.org/Graphics/SVG/1.1/DTD/svg11.dtd">
<svg version="1.1" id="Layer_1" xmlns="http://www.w3.org/2000/svg" xmlns:xlink="http://www.w3.org/1999/xlink" x="0px" y="0px"
	 width="408.016px" height="408.015px" viewBox="0 0 408.016 408.015" enable-background="new 0 0 408.016 408.015"
	 xml:space="preserve">
<g>
	<path fill="#F3F3F3" d="M406.08,134.072c0,44.024,0,88.048,0,132.073c-2.42,10.673-4.34,21.489-7.364,31.989
		c-6.305,21.891-20.956,36.266-42.804,41.811c-13.821,3.508-28.309,5.99-42.521,6.113c-70.128,0.609-140.266,0.641-210.393-0.004
		c-15.254-0.141-30.757-2.693-45.646-6.236c-22.224-5.289-38.333-19.025-45.917-41.043c-3.465-10.062-5.295-20.689-7.867-31.059
		c0-46.119,0-92.241,0-138.361c0.586-2.527,1.356-5.027,1.732-7.583c4.54-30.821,20.905-48.529,51.649-53.968
		c14.361-2.54,29.073-4.206,43.641-4.296c69.944-0.435,139.894-0.485,209.836,0.031c15.333,0.114,30.878,1.955,45.914,5.015
		c25.137,5.116,41.334,20.446,46.368,46.288C403.956,121.229,404.964,127.66,406.08,134.072z M159.232,202.28
		c0,13.089-0.035,26.175,0.01,39.263c0.056,17.234,8.281,22.244,23.534,14.348c12.548-6.496,25.118-12.945,37.596-19.57
		c13.63-7.236,27.334-14.361,40.682-22.094c9.71-5.624,10.297-17.291,1.109-22.181c-27.713-14.752-55.562-29.261-83.598-43.39
		c-10.673-5.378-19.189,0.616-19.299,12.793C159.147,175.057,159.239,188.668,159.232,202.28z"/>
</g>
</svg>
