<?xml version="1.0" encoding="utf-8"?>
<!-- Generator: Adobe Illustrator 16.0.0, SVG Export Plug-In . SVG Version: 6.00 Build 0)  -->
<!DOCTYPE svg PUBLIC "-//W3C//DTD SVG 1.1//EN" "http://www.w3.org/Graphics/SVG/1.1/DTD/svg11.dtd">
<svg version="1.1" id="Layer_1" xmlns="http://www.w3.org/2000/svg" xmlns:xlink="http://www.w3.org/1999/xlink" x="0px" y="0px"
	 width="425.374px" height="425.372px" viewBox="-9.575 -15.131 425.374 425.372"
	 enable-background="new -9.575 -15.131 425.374 425.372" xml:space="preserve">
<g>
	<path fill="#F3F3F3" d="M400.667,29.515c0,112.88,0,225.759,0,338.641c-4.576,15.101-14.414,24.938-29.514,29.515
		c-112.879,0-225.762,0-338.641,0c-22.021-7.04-29.824-22.54-29.715-45.061c0.504-102.516,0.504-205.034,0-307.549
		C2.689,22.54,10.492,7.04,32.513,0c112.879,0,225.762,0,338.641,0C386.253,4.576,396.091,14.415,400.667,29.515z M221.644,168.97
		c-0.545-4.148-0.988-6.357-1.102-8.585c-0.627-12.392-2.545-14.32-14.848-14.372c-11.902-0.048-23.805-0.089-35.707,0.021
		c-10.688,0.101-14.713,3.942-14.727,14.464c-0.07,59.767-0.072,119.536,0.002,179.304c0.014,10.477,4.059,14.258,14.844,14.356
		c11.643,0.104,23.285,0.088,34.93,0.011c12.932-0.086,15.441-2.609,15.457-15.475c0.031-28.201-0.283-56.409,0.137-84.606
		c0.221-14.793,1.9-29.498,11.268-42.005c14.086-18.811,45.258-15.973,54.332,5.621c3.512,8.354,5.238,17.999,5.43,27.104
		c0.648,31.036,0.221,62.094,0.268,93.142c0.021,13.632,2.646,16.177,16.48,16.229c11.385,0.045,22.77,0.051,34.154-0.002
		c13.592-0.062,16.154-2.659,16.172-16.535c0.039-32.858,0.35-65.725-0.156-98.576c-0.193-12.601-1.523-25.311-3.734-37.721
		c-3.475-19.5-12.217-36.738-29.348-47.53c-25.316-15.948-69.84-15.749-93.555,5.341C228.91,161.852,226.058,164.75,221.644,168.97z
		 M125.724,250.115c0-30.009,0.072-60.015-0.035-90.02c-0.039-10.754-3.246-13.914-13.936-14.043
		c-12.156-0.149-24.314-0.125-36.473-0.017c-10.965,0.099-14.785,3.97-14.795,15.19c-0.051,59.237-0.051,118.476-0.002,177.712
		c0.01,10.938,3.984,15.002,14.947,15.186c11.639,0.196,23.281,0.178,34.92,0.014c11.471-0.16,15.342-4.113,15.365-15.555
		C125.775,309.094,125.736,279.603,125.724,250.115z M135.056,86.439c0.043-23.562-18.131-42.551-40.973-42.808
		C70.839,43.37,51.273,62.482,51.142,85.572c-0.133,23.632,18.387,42.803,41.668,43.136
		C116.107,129.042,135.011,110.127,135.056,86.439z"/>
</g>
</svg>
